{
  "asset": {
    "generator": "Khronos glTF Blender I/O v1.5.17",
    "version": "2.0"
  },
  "scene": 0,
  "scenes": [
    {
      "name": "Scene",
      "nodes": [
        0,
        1,
        2,
        3
      ]
    }
  ],
  "nodes": [
    {
      "name": "Light",
      "rotation": [
        0.16907575726509094,
        0.7558803558349609,
        -0.27217137813568115,
        0.570947527885437
      ],
      "translation": [
        4.076245307922363,
        5.903861999511719,
        -1.0054539442062378
      ]
    },
    {
      "name": "Camera",
      "rotation": [
        0.483536034822464,
        0.33687159419059753,
        -0.20870360732078552,
        0.7804827094078064
      ],
      "translation": [
        7.358891487121582,
        4.958309173583984,
        6.925790786743164
      ]
    },
    {
      "mesh": 0,
      "name": "chest_of_drawers"
    },
    {
      "name": "Material_Preview_Dummy"
    }
  ],
  "materials": [
    {
      "doubleSided": true,
      "name": "lighter_furnature",
      "pbrMetallicRoughness": {
        "baseColorFactor": [
          0.18447501957416534,
          0.08437623083591461,
          0.039546236395835876,
          1
        ],
        "metallicFactor": 0,
        "roughnessFactor": 0.5
      }
    },
    {
      "doubleSided": true,
      "name": "darker_furnature",
      "pbrMetallicRoughness": {
        "baseColorFactor": [
          0.09462588280439377,
          0.044879790395498276,
          0.031094755977392197,
          1
        ],
        "metallicFactor": 0,
        "roughnessFactor": 0.5
      }
    }
  ],
  "meshes": [
    {
      "name": "chest_of_drawers",
      "primitives": [
        {
          "attributes": {
            "POSITION": 0,
            "NORMAL": 1
          },
          "indices": 2,
          "material": 0
        },
        {
          "attributes": {
            "POSITION": 3,
            "NORMAL": 4
          },
          "indices": 5,
          "material": 1
        }
      ]
    }
  ],
  "accessors": [
    {
      "bufferView": 0,
      "componentType": 5126,
      "count": 734,
      "max": [
        37,
        37,
        20.399999618530273
      ],
      "min": [
        0,
        0,
        -8.215650382226158e-15
      ],
      "type": "VEC3"
    },
    {
      "bufferView": 1,
      "componentType": 5126,
      "count": 734,
      "type": "VEC3"
    },
    {
      "bufferView": 2,
      "componentType": 5123,
      "count": 1140,
      "type": "SCALAR"
    },
    {
      "bufferView": 3,
      "componentType": 5126,
      "count": 168,
      "max": [
        31.649999618530273,
        33.35499954223633,
        20.399999618530273
      ],
      "min": [
        5.349999904632568,
        6.230000019073486,
        20.399999618530273
      ],
      "type": "VEC3"
    },
    {
      "bufferView": 4,
      "componentType": 5126,
      "count": 168,
      "type": "VEC3"
    },
    {
      "bufferView": 5,
      "componentType": 5123,
      "count": 240,
      "type": "SCALAR"
    }
  ],
  "bufferViews": [
    {
      "buffer": 0,
      "byteLength": 8808,
      "byteOffset": 0
    },
    {
      "buffer": 0,
      "byteLength": 8808,
      "byteOffset": 8808
    },
    {
      "buffer": 0,
      "byteLength": 2280,
      "byteOffset": 17616
    },
    {
      "buffer": 0,
      "byteLength": 2016,
      "byteOffset": 19896
    },
    {
      "buffer": 0,
      "byteLength": 2016,
      "byteOffset": 21912
    },
    {
      "buffer": 0,
      "byteLength": 480,
      "byteOffset": 23928
    }
  ],
  "buffers": [
    {
      "uri": "chest_of_drawers_data.bin",
      "byteLength": 24408
    }
  ]
}