# Created by FreeCAD <http://www.freecadweb.org>
mtllib wall_mounted_book_case.mtl
v 0.000000 0.000000 304.799988
v 0.000000 0.000000 0.000000
v 19.049999 0.000000 304.799988
v 19.049999 0.000000 0.000000
v -0.000000 6.350000 -0.000000
v -0.000000 57.150002 -0.000000
v -0.000000 660.400024 -0.000000
v 0.000000 762.000000 304.799988
v -0.000000 698.500000 -0.000000
v 0.000000 762.000000 -0.000000
v 19.049999 6.350000 -0.000000
v 19.049999 19.049999 304.799988
v 19.049999 19.049999 -0.000000
v 19.049999 38.099998 304.799988
v 19.049999 368.299988 304.799988
v 19.049999 387.350006 304.799988
v 600.075012 38.099998 304.799988
v 19.049999 666.750000 304.799988
v 19.049999 685.799988 304.799988
v 19.049999 762.000000 304.799988
v 600.075012 368.299988 304.799988
v 619.125000 368.299988 304.799988
v 619.125000 38.099998 304.799988
v 1219.199951 0.000000 304.799988
v 1200.150024 19.049999 304.799988
v 1200.150024 0.000000 304.799988
v 1200.150024 38.099998 304.799988
v 1200.150024 368.299988 304.799988
v 1200.150024 387.350006 304.799988
v 1200.150024 685.799988 304.799988
v 1219.199951 762.000000 304.799988
v 1200.150024 762.000000 304.799988
v 1200.150024 666.750000 304.799988
v -0.000000 6.350000 -19.049999
v -0.000000 57.150002 -19.049999
v 19.049999 762.000000 -0.000000
v 19.049999 368.299988 -0.000000
v 19.049999 57.150002 -0.000000
v 19.049999 387.350006 -0.000000
v 19.049999 660.400024 -0.000000
v 600.075012 368.299988 -0.000000
v 619.125000 368.299988 -0.000000
v 600.075012 57.150002 -0.000000
v 619.125000 57.150002 -0.000000
v 1200.150024 368.299988 -0.000000
v 1219.199951 57.150002 -0.000000
v 1200.150024 57.150002 -0.000000
v 1200.150024 387.350006 -0.000000
v 1219.199951 660.400024 -0.000000
v 1200.150024 660.400024 -0.000000
v 19.049999 698.500000 -0.000000
v -0.000000 698.500000 -19.049999
v -0.000000 647.700012 -19.049999
v 1200.150024 19.049999 -0.000000
v 1200.150024 6.350000 -0.000000
v 1219.199951 6.350000 -19.049999
v 1219.199951 6.350000 -0.000000
v 19.049999 685.799988 -0.000000
v 1200.150024 685.799988 -0.000000
v 1200.150024 762.000000 -0.000000
v 1200.150024 698.500000 -0.000000
v 1219.199951 762.000000 -0.000000
v 1219.199951 698.500000 -0.000000
v 1219.199951 0.000000 0.000000
v 1200.150024 0.000000 0.000000
v 19.049999 666.750000 -0.000000
v 1200.150024 666.750000 -0.000000
v 619.125000 38.099998 -0.000000
v 1200.150024 38.099998 -0.000000
v 19.049999 38.099998 -0.000000
v 600.075012 38.099998 -0.000000
v 1219.199951 57.150002 -19.049999
v 1219.199951 647.700012 -19.049999
v 1219.199951 698.500000 -19.049999
vn 0.000000 -1.000000 0.000000
vn 0.000000 -1.000000 0.000000
vn -1.000000 -0.000000 0.000000
vn -1.000000 -0.000000 -0.000000
vn -1.000000 0.000000 0.000000
vn -1.000000 -0.000000 0.000000
vn -1.000000 -0.000000 0.000000
vn -1.000000 0.000000 0.000000
vn 1.000000 -0.000000 0.000000
vn 1.000000 -0.000000 0.000000
vn 1.000000 -0.000000 0.000000
vn 0.000000 -0.000000 -1.000000
vn -0.000000 -0.000000 -1.000000
vn 0.000000 -0.000000 1.000000
vn 0.000000 -0.000000 1.000000
vn 0.000000 -0.000000 1.000000
vn 0.000000 -0.000000 1.000000
vn 0.000000 0.000000 1.000000
vn 0.000000 0.000000 1.000000
vn 0.000000 0.000000 1.000000
vn 0.000000 0.000000 1.000000
vn 0.000000 -0.000000 1.000000
vn 0.000000 0.000000 1.000000
vn 0.000000 0.000000 1.000000
vn 0.000000 -0.000000 1.000000
vn 0.000000 0.000000 1.000000
vn 0.000000 -0.000000 1.000000
vn 0.000000 0.000000 1.000000
vn 0.000000 0.000000 1.000000
vn 0.000000 -0.000000 1.000000
vn 0.000000 0.000000 1.000000
vn 0.000000 0.000000 1.000000
vn 0.000000 -0.000000 1.000000
vn 0.000000 0.000000 1.000000
vn 0.000000 0.000000 1.000000
vn 0.000000 0.000000 1.000000
vn -0.000000 0.000000 1.000000
vn 0.000000 0.000000 1.000000
vn 0.000000 0.000000 1.000000
vn 0.000000 0.000000 1.000000
vn -0.000000 0.000000 1.000000
vn -1.000000 -0.000000 -0.000000
vn -1.000000 -0.000000 0.000000
vn 0.000000 1.000000 0.000000
vn 0.000000 1.000000 -0.000000
vn -0.000000 -0.000000 -1.000000
vn -0.000000 -0.000000 -1.000000
vn -0.000000 -0.000000 -1.000000
vn -0.000000 -0.000000 -1.000000
vn -0.000000 -0.000000 -1.000000
vn -0.000000 -0.000000 -1.000000
vn 0.000000 -0.000000 -1.000000
vn 0.000000 -0.000000 -1.000000
vn 0.000000 -0.000000 -1.000000
vn 0.000000 -0.000000 -1.000000
vn 0.000000 -0.000000 -1.000000
vn 0.000000 -0.000000 -1.000000
vn 0.000000 -0.000000 -1.000000
vn 0.000000 -0.000000 -1.000000
vn -0.000000 -0.000000 -1.000000
vn 0.000000 0.000000 -1.000000
vn -1.000000 -0.000000 0.000000
vn -1.000000 -0.000000 -0.000000
vn 0.000000 0.000000 1.000000
vn 0.000000 0.000000 1.000000
vn 0.000000 -1.000000 0.000000
vn 0.000000 -1.000000 0.000000
vn 0.000000 -1.000000 0.000000
vn -0.000000 -1.000000 -0.000000
vn 0.000000 -1.000000 0.000000
vn 0.000000 -1.000000 -0.000000
vn 1.000000 0.000000 0.000000
vn 1.000000 0.000000 -0.000000
vn 1.000000 -0.000000 0.000000
vn 0.000000 1.000000 0.000000
vn 0.000000 1.000000 -0.000000
vn -1.000000 -0.000000 0.000000
vn -1.000000 -0.000000 0.000000
vn -1.000000 0.000000 0.000000
vn 0.000000 1.000000 0.000000
vn 0.000000 1.000000 -0.000000
vn 1.000000 -0.000000 0.000000
vn 1.000000 -0.000000 0.000000
vn 1.000000 -0.000000 0.000000
vn 1.000000 -0.000000 -0.000000
vn 1.000000 -0.000000 -0.000000
vn 1.000000 -0.000000 0.000000
vn 0.000000 -1.000000 0.000000
vn 0.000000 -1.000000 0.000000
vn -1.000000 0.000000 0.000000
vn -1.000000 0.000000 0.000000
vn -1.000000 0.000000 0.000000
vn 1.000000 -0.000000 0.000000
vn 1.000000 -0.000000 0.000000
vn 1.000000 0.000000 0.000000
vn 0.000000 1.000000 -0.000000
vn 0.000000 1.000000 0.000000
vn -1.000000 -0.000000 0.000000
vn -1.000000 -0.000000 0.000000
vn -1.000000 0.000000 0.000000
vn 0.000000 -1.000000 0.000000
vn 0.000000 -1.000000 0.000000
vn 1.000000 -0.000000 0.000000
vn 1.000000 0.000000 -0.000000
vn 1.000000 -0.000000 0.000000
vn 0.000000 1.000000 -0.000000
vn 0.000000 1.000000 0.000000
vn -1.000000 0.000000 0.000000
vn -1.000000 -0.000000 0.000000
vn -1.000000 0.000000 0.000000
vn 0.000000 -1.000000 0.000000
vn 0.000000 -1.000000 0.000000
vn 1.000000 -0.000000 0.000000
vn 1.000000 0.000000 -0.000000
vn 1.000000 -0.000000 0.000000
vn 0.000000 1.000000 -0.000000
vn 0.000000 1.000000 0.000000
vn -1.000000 0.000000 0.000000
vn -1.000000 -0.000000 0.000000
vn -1.000000 0.000000 0.000000
vn 0.000000 -1.000000 0.000000
vn 0.000000 -1.000000 0.000000
vn 0.000000 1.000000 -0.000000
vn 0.000000 1.000000 0.000000
vn 0.000000 1.000000 0.000000
vn 0.000000 1.000000 0.000000
vn 0.000000 1.000000 0.000000
vn 0.000000 1.000000 0.000000
vn 0.000000 0.000000 -1.000000
vn 0.000000 0.000000 -1.000000
vn -0.000000 -0.832050 0.554701
vn 0.000000 -0.832050 0.554701
vn 0.000000 -0.832050 0.554701
vn 0.000000 -0.832050 0.554701
vn 0.000000 1.000000 -0.000000
vn -0.000000 1.000000 0.000000
vn 0.000000 1.000000 0.000000
vn 0.000000 1.000000 0.000000
vn 0.000000 0.000000 -1.000000
vn 0.000000 0.000000 -1.000000
vn 0.000000 -0.000000 -1.000000
vn 0.000000 -0.000000 -1.000000
vn 1.000000 0.000000 0.000000
vn 1.000000 0.000000 0.000000
vn -0.000000 0.000000 1.000000
vn -0.000000 0.000000 1.000000
vn 0.000000 0.000000 -1.000000
vn -0.000000 -0.000000 -1.000000
vn 1.000000 0.000000 0.000000
vn 1.000000 0.000000 0.000000
vn 0.000000 -0.000000 1.000000
vn 0.000000 -0.000000 1.000000
vn 0.000000 0.000000 1.000000
vn -0.000000 0.000000 1.000000
vn 0.000000 0.000000 1.000000
vn -0.000000 0.000000 1.000000
usemtl material_0
f 1//1 2//1 3//1
f 2//2 4//2 3//2
f 5//3 2//3 1//3
f 6//4 5//4 1//4
f 7//5 1//5 8//5
f 7//6 6//6 1//6
f 9//7 7//7 8//7
f 10//8 9//8 8//8
f 4//9 11//9 3//9
f 3//10 11//10 12//10
f 11//11 13//11 12//11
f 11//12 4//12 2//12
f 11//13 2//13 5//13
f 3//14 12//14 1//14
f 12//15 14//15 1//15
f 14//16 15//16 1//16
f 15//17 16//17 1//17
f 12//18 17//18 14//18
f 18//19 8//19 16//19
f 16//20 8//20 1//20
f 19//21 8//21 18//21
f 19//22 20//22 8//22
f 15//23 21//23 16//23
f 17//24 22//24 21//24
f 23//25 22//25 17//25
f 24//26 25//26 26//26
f 25//27 27//27 23//27
f 24//28 27//28 25//28
f 24//29 28//29 27//29
f 28//30 29//30 22//30
f 30//31 31//31 32//31
f 33//32 31//32 30//32
f 24//33 31//33 28//33
f 28//34 31//34 29//34
f 29//35 31//35 33//35
f 12//36 25//36 17//36
f 17//37 25//37 23//37
f 29//38 16//38 21//38
f 29//39 21//39 22//39
f 18//40 33//40 19//40
f 19//41 33//41 30//41
f 5//42 6//42 34//42
f 34//43 6//43 35//43
f 10//44 8//44 20//44
f 36//45 10//45 20//45
f 37//46 38//46 6//46
f 7//47 37//47 6//47
f 7//48 39//48 37//48
f 40//49 39//49 7//49
f 41//50 37//50 39//50
f 42//51 43//51 41//51
f 42//52 44//52 43//52
f 45//53 46//53 47//53
f 48//54 45//54 42//54
f 49//55 48//55 50//55
f 49//56 46//56 45//56
f 49//57 45//57 48//57
f 39//58 48//58 41//58
f 41//59 48//59 42//59
f 10//60 51//60 9//60
f 36//61 51//61 10//61
f 7//62 9//62 52//62
f 7//63 52//63 53//63
f 54//64 13//64 55//64
f 13//65 11//65 55//65
f 12//66 54//66 25//66
f 13//67 54//67 12//67
f 55//68 56//68 57//68
f 55//69 11//69 56//69
f 5//70 34//70 11//70
f 11//71 34//71 56//71
f 51//72 36//72 20//72
f 51//73 20//73 19//73
f 58//74 51//74 19//74
f 30//75 58//75 19//75
f 59//76 58//76 30//76
f 60//77 61//77 32//77
f 32//78 61//78 30//78
f 61//79 59//79 30//79
f 60//80 32//80 31//80
f 62//81 60//81 31//81
f 63//82 62//82 31//82
f 49//83 63//83 31//83
f 24//84 49//84 31//84
f 46//85 49//85 24//85
f 57//86 46//86 24//86
f 64//87 57//87 24//87
f 64//88 24//88 26//88
f 65//89 64//89 26//89
f 55//90 65//90 26//90
f 55//91 26//91 25//91
f 54//92 55//92 25//92
f 39//93 40//93 16//93
f 16//94 40//94 18//94
f 40//95 66//95 18//95
f 48//96 16//96 29//96
f 48//97 39//97 16//97
f 67//98 50//98 33//98
f 33//99 50//99 29//99
f 50//100 48//100 29//100
f 66//101 33//101 18//101
f 66//102 67//102 33//102
f 68//103 44//103 23//103
f 44//104 22//104 23//104
f 44//105 42//105 22//105
f 69//106 68//106 27//106
f 27//107 68//107 23//107
f 45//108 47//108 28//108
f 28//109 47//109 27//109
f 47//110 69//110 27//110
f 42//111 45//111 22//111
f 22//112 45//112 28//112
f 70//113 38//113 14//113
f 38//114 15//114 14//114
f 38//115 37//115 15//115
f 71//116 70//116 17//116
f 17//117 70//117 14//117
f 41//118 43//118 21//118
f 21//119 43//119 17//119
f 43//120 71//120 17//120
f 37//121 21//121 15//121
f 37//122 41//122 21//122
f 72//123 47//123 46//123
f 72//124 44//124 47//124
f 43//125 35//125 38//125
f 35//126 6//126 38//126
f 72//127 35//127 44//127
f 44//128 35//128 43//128
f 34//129 35//129 56//129
f 56//130 35//130 72//130
f 50//131 73//131 49//131
f 40//132 53//132 73//132
f 40//133 73//133 50//133
f 7//134 53//134 40//134
f 74//135 61//135 63//135
f 51//136 61//136 74//136
f 52//137 9//137 51//137
f 52//138 51//138 74//138
f 52//139 74//139 73//139
f 53//140 52//140 73//140
f 57//141 65//141 55//141
f 57//142 64//142 65//142
f 72//143 57//143 56//143
f 46//144 57//144 72//144
f 58//145 59//145 61//145
f 51//146 58//146 61//146
f 60//147 63//147 61//147
f 62//148 63//148 60//148
f 63//149 49//149 74//149
f 74//150 49//150 73//150
f 66//151 50//151 67//151
f 66//152 40//152 50//152
f 47//153 68//153 69//153
f 44//154 68//154 47//154
f 43//155 70//155 71//155
f 38//156 70//156 43//156
